<svg xmlns="http://www.w3.org/2000/svg" width="375" viewBox="0 0 375 375" height="375" version="1.0"><defs><clipPath id="a"><path d="M 66.425781 56.101562 L 308.675781 56.101562 L 308.675781 161 L 66.425781 161 Z M 66.425781 56.101562"/></clipPath><clipPath id="b"><path d="M 244.625 173.230469 L 308.375 173.230469 L 308.375 226.480469 L 244.625 226.480469 Z M 244.625 173.230469"/></clipPath></defs><g clip-path="url(#a)"><path fill="#FFF" d="M 268.917969 120.207031 L 268.917969 96.894531 L 272.875 96.894531 L 272.875 89.558594 L 247.351562 89.558594 L 247.351562 96.894531 L 251.304688 96.894531 L 251.304688 106.449219 L 187.863281 56.902344 L 187.746094 57.050781 L 187.628906 56.902344 L 66.570312 151.449219 L 73.835938 160.691406 L 187.75 71.726562 L 301.65625 160.691406 L 308.925781 151.449219 Z M 268.917969 120.207031"/></g><g fill="#FFF"><g><g><path d="M 4.734375 -47.3125 L 18.109375 -47.3125 L 18.109375 0 L 4.734375 0 Z M 4.734375 -47.3125" transform="translate(66.427 225.3)"/></g></g></g><g fill="#FFF"><g><g><path d="M 47.453125 0 L 47.3125 -25.078125 L 35.15625 -4.65625 L 29.203125 -4.65625 L 17.09375 -24.40625 L 17.09375 0 L 4.734375 0 L 4.734375 -47.3125 L 15.75 -47.3125 L 32.375 -20 L 48.59375 -47.3125 L 59.625 -47.3125 L 59.75 0 Z M 47.453125 0" transform="translate(96.777 225.3)"/></g></g></g><g fill="#FFF"><g><g><path d="M 49.75 -47.3125 L 49.75 0 L 36.359375 0 L 36.359375 -18.453125 L 18.109375 -18.453125 L 18.109375 0 L 4.734375 0 L 4.734375 -47.3125 L 18.109375 -47.3125 L 18.109375 -29.53125 L 36.359375 -29.53125 L 36.359375 -47.3125 Z M 49.75 -47.3125" transform="translate(66.427 300.3)"/></g></g></g><g fill="#FFF"><g><g><path d="M 4.734375 -47.3125 L 18.109375 -47.3125 L 18.109375 -10.609375 L 40.6875 -10.609375 L 40.6875 0 L 4.734375 0 Z M 4.734375 -47.3125" transform="translate(158.694 300.3)"/></g></g></g><g fill="#FFF"><g><g><path d="M 18.109375 -36.96875 L 18.109375 -26.5625 L 39 -26.5625 L 39 -16.21875 L 18.109375 -16.21875 L 18.109375 0 L 4.734375 0 L 4.734375 -47.3125 L 41.84375 -47.3125 L 41.84375 -36.96875 Z M 18.109375 -36.96875" transform="translate(207.362 300.3)"/></g></g></g><g fill="#FFF"><g><g><path d="M 14.796875 -36.703125 L 0.265625 -36.703125 L 0.265625 -47.3125 L 42.65625 -47.3125 L 42.65625 -36.703125 L 28.1875 -36.703125 L 28.1875 0 L 14.796875 0 Z M 14.796875 -36.703125" transform="translate(258.194 300.3)"/></g></g></g><g clip-path="url(#b)"><path fill="#C6302C" d="M 296.488281 173.714844 C 289.070312 171.613281 279.90625 177.382812 276.5 186.519531 C 273.09375 177.34375 263.933594 171.613281 256.511719 173.714844 C 246.933594 176.429688 243.148438 185.066406 245.117188 195.574219 C 246.746094 204.097656 256.511719 219.003906 276.460938 226.382812 C 296.414062 219.003906 306.21875 204.097656 307.808594 195.574219 C 309.851562 185.066406 306.066406 176.429688 296.488281 173.714844 Z M 296.488281 173.714844"/></g></svg>