<?xml version="1.0" encoding="utf-8"?>
<!-- Generator: Adobe Illustrator 26.0.3, SVG Export Plug-In . SVG Version: 6.00 Build 0)  -->
<svg version="1.1" id="Ebene_1" xmlns="http://www.w3.org/2000/svg" xmlns:xlink="http://www.w3.org/1999/xlink" x="0px" y="0px"
	 viewBox="0 0 500 500" style="enable-background:new 0 0 500 500;" xml:space="preserve">
<style type="text/css">
	.st0{fill:#FFFFFF;}
	.st1{clip-path:url(#SVGID_00000080924951824676699320000015837245902492068525_);}
	.st2{fill:#ED2C25;}
</style>
<g>
	<g>
		<g>
			<defs>
				<path id="SVGID_1_" d="M45,138.3c138.8,69.6,277.6-90.8,416.4-27c0,81,0,161.9,0,242.9c-138.8-63.8-277.6,96.6-416.4,27
					C45,300.2,45,219.3,45,138.3z"/>
			</defs>
			<clipPath id="SVGID_00000044164327878080060070000006585525850109305008_">
				<use xlink:href="#SVGID_1_"  style="overflow:visible;"/>
			</clipPath>
		</g>
	</g>
	<g>
		<path class="st0" d="M24.2,394.5c154.5,104.4,308.9-104.4,463.4,0c0-96.6,0-193.3,0-289.9C333.1,0.3,178.6,209,24.2,104.6
			C24.2,201.3,24.2,297.9,24.2,394.5z"/>
		<g id="AUSTRIA_2_">
			<g>
				<defs>
					<path id="SVGID_00000151515798064331528820000008961508476263482780_" d="M45,138.3c138.8,69.6,277.6-90.8,416.4-27
						c0,81,0,161.9,0,242.9c-138.8-63.8-277.6,96.6-416.4,27C45,300.2,45,219.3,45,138.3z"/>
				</defs>
				<clipPath id="SVGID_00000052100637685657966150000010237159480554281379_">
					<use xlink:href="#SVGID_00000151515798064331528820000008961508476263482780_"  style="overflow:visible;"/>
				</clipPath>
				<g style="clip-path:url(#SVGID_00000052100637685657966150000010237159480554281379_);">
					<path class="st2" d="M45,219.3c138.8,69.6,277.6-90.8,416.4-27c0-27,0-54,0-81c-138.8-63.8-277.6,96.6-416.4,27
						C45,165.3,45,192.3,45,219.3z"/>
				</g>
				<g style="clip-path:url(#SVGID_00000052100637685657966150000010237159480554281379_);">
					<path class="st2" d="M45,381.2c138.8,69.6,277.6-90.8,416.4-27c0-27,0-54,0-80.9c-138.8-63.8-277.6,96.6-416.4,27
						C45,327.2,45,354.2,45,381.2z"/>
				</g>
				<g style="clip-path:url(#SVGID_00000052100637685657966150000010237159480554281379_);">
					<path class="st0" d="M45,300.3c138.8,69.6,277.6-90.8,416.4-27c0-27,0-54,0-81c-138.8-63.8-277.6,96.6-416.4,27
						C45,246.3,45,273.3,45,300.3z"/>
				</g>
			</g>
		</g>
	</g>
	<g>
		<g>
			<defs>
				<path id="SVGID_00000106140327600142785910000005444483471877582500_" d="M45,138.3c138.8,69.6,277.6-90.8,416.4-27
					c0,81,0,161.9,0,242.9c-138.8-63.8-277.6,96.6-416.4,27C45,300.2,45,219.3,45,138.3z"/>
			</defs>
			<clipPath id="SVGID_00000155827522569705831770000004222308205445764031_">
				<use xlink:href="#SVGID_00000106140327600142785910000005444483471877582500_"  style="overflow:visible;"/>
			</clipPath>
		</g>
	</g>
</g>
</svg>
