<?xml version="1.0" encoding="utf-8"?>
<!-- Generator: Adobe Illustrator 26.0.3, SVG Export Plug-In . SVG Version: 6.00 Build 0)  -->
<svg version="1.1" id="Ebene_1" xmlns="http://www.w3.org/2000/svg" xmlns:xlink="http://www.w3.org/1999/xlink" x="0px" y="0px"
	 viewBox="0 0 500 500" style="enable-background:new 0 0 500 500;" xml:space="preserve">
<style type="text/css">
	.st0{fill:#FFFFFF;}
	.st1{clip-path:url(#SVGID_00000021116544087423505910000006283877007516008891_);}
	.st2{fill:#BD1F37;}
	.st3{fill:#2D2F77;}
</style>
<g>
	<g>
		<g>
			<defs>
				<path id="SVGID_1_" d="M21.9,129.6c149.6,75.1,299.3-97.9,448.9-29.1c0,87.3,0,174.6,0,261.9
					c-149.6-68.8-299.3,104.2-448.9,29.1C21.9,304.2,21.9,216.9,21.9,129.6z"/>
			</defs>
			<clipPath id="SVGID_00000150812118952198172840000014839604577680074896_">
				<use xlink:href="#SVGID_1_"  style="overflow:visible;"/>
			</clipPath>
		</g>
	</g>
	<g>
		<path class="st0" d="M499.1,93.3C332.5-19.2,166,205.8-0.5,93.3c0,104.2,0,208.4,0,312.5c166.5,112.5,333.1-112.5,499.6,0
			C499.1,301.7,499.1,197.5,499.1,93.3z"/>
		<g id="UNITED_KINGDOM_2_">
			<g>
				<defs>
					<path id="SVGID_00000155106198670871007690000003609464689595311287_" d="M21.9,129.6c149.6,75.1,299.3-97.9,448.9-29.1
						c0,87.3,0,174.6,0,261.9c-149.6-68.8-299.3,104.2-448.9,29.1C21.9,304.2,21.9,216.9,21.9,129.6z"/>
				</defs>
				<clipPath id="SVGID_00000178893706077884305780000006535976083385655453_">
					<use xlink:href="#SVGID_00000155106198670871007690000003609464689595311287_"  style="overflow:visible;"/>
				</clipPath>
				<g style="clip-path:url(#SVGID_00000178893706077884305780000006535976083385655453_);">
					<path class="st0" d="M21.9,391.5c149.6,75.1,299.3-97.9,448.9-29.1c0-87.3,0-174.6,0-261.9C321.2,31.7,171.6,204.7,21.9,129.6
						C21.9,216.9,21.9,304.2,21.9,391.5z"/>
				</g>
				<g style="clip-path:url(#SVGID_00000178893706077884305780000006535976083385655453_);">
					<path class="st2" d="M322.5,188.5c49.4-40.1,98.9-71.4,148.3-76.4c0-3.9,0-7.8,0-11.6c-3.4-1.6-6.8-3-10.2-4.3
						c-56.4,9.7-112.8,52.1-169.1,101.1C301.9,194,312.2,191.1,322.5,188.5z"/>
				</g>
				<g style="clip-path:url(#SVGID_00000178893706077884305780000006535976083385655453_);">
					<path class="st2" d="M315.5,268c51.8,15.2,103.6,39,155.3,91.8c0-5.8,0-11.6,0-17.4c-41.4-42.2-82.9-65.9-124.3-81.5
						C336.2,262.9,325.9,265.3,315.5,268z"/>
				</g>
				<g style="clip-path:url(#SVGID_00000178893706077884305780000006535976083385655453_);">
					<path class="st2" d="M21.9,149.5c44.3,47.1,88.6,72.5,132.9,88.9c10.3-2,20.7-4.5,31-7.3c-54.6-15.8-109.3-40.9-163.9-99
						C21.9,138,21.9,143.7,21.9,149.5z"/>
				</g>
				<g style="clip-path:url(#SVGID_00000178893706077884305780000006535976083385655453_);">
					<path class="st2" d="M178.8,310.8C126.5,353.5,74.2,386.9,21.9,390c0,0.5,0,1,0,1.5c9.4,4.7,18.9,8.5,28.3,11.4
						c53.2-13.6,106.4-54.6,159.6-101C199.6,305.1,189.2,308.1,178.8,310.8z"/>
				</g>
				<g style="clip-path:url(#SVGID_00000178893706077884305780000006535976083385655453_);">
					<path class="st3" d="M440.2,89.6c-52.4-13.3-104.8-1.1-157.2,15.7c0,29.3,0,58.7,0,88C335.4,147.2,387.8,105.6,440.2,89.6z"/>
				</g>
				<g style="clip-path:url(#SVGID_00000178893706077884305780000006535976083385655453_);">
					<path class="st3" d="M213.6,128.2c-52.2,16.5-104.4,28.4-156.6,14.7c52.2,43,104.4,60.6,156.6,73.4
						C213.6,186.9,213.6,157.6,213.6,128.2z"/>
				</g>
				<g style="clip-path:url(#SVGID_00000178893706077884305780000006535976083385655453_);">
					<path class="st3" d="M470.9,195.2c0-20,0-40,0-60.1c-35.5,3.7-71.1,21-106.6,45.4C399.8,176.1,435.3,178.8,470.9,195.2z"/>
				</g>
				<g style="clip-path:url(#SVGID_00000178893706077884305780000006535976083385655453_);">
					<path class="st3" d="M470.9,332.3c0-19.8,0-39.6,0-59.4c-35.5-16.3-71.1-19-106.6-14.7C399.8,273.7,435.3,296.2,470.9,332.3z"
						/>
				</g>
				<g style="clip-path:url(#SVGID_00000178893706077884305780000006535976083385655453_);">
					<path class="st3" d="M65.9,406.8c49.2,10.3,98.4-1.1,147.7-16.7c0-27.6,0-55.2,0-82.7C164.4,350.5,115.1,389.5,65.9,406.8z"/>
				</g>
				<g style="clip-path:url(#SVGID_00000178893706077884305780000006535976083385655453_);">
					<path class="st3" d="M283,367.1c49.4-15.8,98.8-27.5,148.1-17.7c-49.4-37.4-98.8-53.2-148.1-65C283,312,283,339.5,283,367.1z"
						/>
				</g>
				<g style="clip-path:url(#SVGID_00000178893706077884305780000006535976083385655453_);">
					<path class="st3" d="M21.9,302c0,20.7,0,41.4,0,62.1c36.8-2.3,73.6-19.5,110.3-44.5C95.5,324,58.7,320.5,21.9,302z"/>
				</g>
				<g style="clip-path:url(#SVGID_00000178893706077884305780000006535976083385655453_);">
					<path class="st3" d="M21.9,224.3c36.8,18.4,73.6,21.9,110.3,17.7c-36.8-16.5-73.6-40.7-110.3-79.9
						C21.9,182.8,21.9,203.6,21.9,224.3z"/>
				</g>
				<g style="clip-path:url(#SVGID_00000178893706077884305780000006535976083385655453_);">
					<path class="st2" d="M227.5,123.7c0,36.7,0,73.5,0,110.2c-68.5,22.6-137,40.2-205.5,5.9c0,15.6,0,31.1,0,46.7
						c68.5,34.4,137,16.7,205.5-5.9c0,35,0,70,0,104.9c13.9-4.6,27.8-9.4,41.6-14c0-35,0-70,0-104.9c67.3-22.3,134.5-40.2,201.8-9.3
						c0-15.6,0-31.1,0-46.7c-67.3-30.9-134.5-13-201.8,9.3c0-36.7,0-73.5,0-110.2C255.2,114.4,241.3,119.2,227.5,123.7z"/>
				</g>
			</g>
		</g>
	</g>
	<g>
		<g>
			<defs>
				<path id="SVGID_00000052792147363411744190000009744384341804861354_" d="M21.9,129.6c149.6,75.1,299.3-97.9,448.9-29.1
					c0,87.3,0,174.6,0,261.9c-149.6-68.8-299.3,104.2-448.9,29.1C21.9,304.2,21.9,216.9,21.9,129.6z"/>
			</defs>
			<clipPath id="SVGID_00000178919349772687105390000008952006128157319047_">
				<use xlink:href="#SVGID_00000052792147363411744190000009744384341804861354_"  style="overflow:visible;"/>
			</clipPath>
		</g>
	</g>
</g>
</svg>
