<?xml version="1.0" encoding="utf-8"?>
<!-- Generator: Adobe Illustrator 26.0.3, SVG Export Plug-In . SVG Version: 6.00 Build 0)  -->
<svg version="1.1" id="Ebene_1" xmlns="http://www.w3.org/2000/svg" xmlns:xlink="http://www.w3.org/1999/xlink" x="0px" y="0px"
	 viewBox="0 0 500 193" style="enable-background:new 0 0 500 193;" xml:space="preserve">
<style type="text/css">
	.st0{fill:#0057B8;}
</style>
<g>
	<path class="st0" d="M20.8,102.1H0V1.4h20.8V102.1z"/>
	<path class="st0" d="M67.1,1.4L93,74.5l25.7-73.1H146v100.8h-20.8V74.6l2.1-47.5l-27.2,75.1H85.8l-27.1-75l2.1,47.5v27.5H40V1.4
		H67.1z"/>
	<path class="st0" d="M191.3,1.4l25.9,73.1l25.7-73.1h27.3v100.8h-20.8V74.6l2.1-47.5l-27.2,75.1H210l-27.1-75l2.1,47.5v27.5h-20.8
		V1.4H191.3z"/>
	<path class="st0" d="M371.1,54.1c0,9.9-1.8,18.6-5.3,26.1c-3.5,7.5-8.5,13.2-15.1,17.3c-6.5,4.1-14,6.1-22.5,6.1
		c-8.4,0-15.8-2-22.4-6c-6.6-4-11.6-9.7-15.2-17.2c-3.6-7.4-5.4-16-5.5-25.7v-5c0-9.9,1.8-18.7,5.4-26.2c3.6-7.5,8.6-13.3,15.2-17.4
		c6.5-4,14-6.1,22.4-6.1c8.4,0,15.9,2,22.4,6.1c6.5,4,11.6,9.8,15.2,17.4c3.6,7.5,5.4,16.3,5.4,26.1V54.1z M350,49.5
		c0-10.6-1.9-18.6-5.7-24.1c-3.8-5.5-9.2-8.2-16.2-8.2c-7,0-12.3,2.7-16.1,8.1c-3.8,5.4-5.7,13.4-5.7,23.8v4.9
		c0,10.3,1.9,18.3,5.7,23.9c3.8,5.7,9.2,8.5,16.3,8.5c7,0,12.3-2.7,16.1-8.2c3.7-5.5,5.6-13.4,5.7-23.9V49.5z"/>
	<path class="st0" d="M443.5,102.1h-20.8V1.4h20.8V102.1z"/>
	<path class="st0" d="M489.9,1.4l25.9,73.1l25.7-73.1h27.3v100.8H548V74.6l2.1-47.5l-27.2,75.1h-14.3l-27.1-75l2.1,47.5v27.5h-20.8
		V1.4H489.9z"/>
	<path class="st0" d="M614.1,1.4L640,74.5l25.7-73.1H693v100.8h-20.8V74.6l2.1-47.5L647,102.1h-14.3l-27.1-75l2.1,47.5v27.5h-20.8
		V1.4H614.1z"/>
	<path class="st0" d="M793.9,54.1c0,9.9-1.8,18.6-5.3,26.1c-3.5,7.5-8.5,13.2-15.1,17.3c-6.5,4.1-14,6.1-22.5,6.1
		c-8.4,0-15.8-2-22.4-6c-6.6-4-11.6-9.7-15.2-17.2c-3.6-7.4-5.4-16-5.5-25.7v-5c0-9.9,1.8-18.7,5.4-26.2c3.6-7.5,8.6-13.3,15.2-17.4
		c6.5-4,14-6.1,22.4-6.1c8.4,0,15.9,2,22.4,6.1c6.5,4,11.6,9.8,15.2,17.4c3.6,7.5,5.4,16.3,5.4,26.1V54.1z M772.8,49.5
		c0-10.6-1.9-18.6-5.7-24.1c-3.8-5.5-9.2-8.2-16.2-8.2c-7,0-12.3,2.7-16.1,8.1s-5.7,13.4-5.7,23.8v4.9c0,10.3,1.9,18.3,5.7,23.9
		c3.8,5.7,9.2,8.5,16.3,8.5c7,0,12.3-2.7,16.1-8.2c3.7-5.5,5.6-13.4,5.7-23.9V49.5z"/>
</g>
<g>
	<path class="st0" d="M73.2,193H54.7v-38.6H18.5V193H0v-90h18.5v36.5h36.2V103h18.5V193z"/>
	<path class="st0" d="M109.2,193H90.6v-90h18.5V193z"/>
	<path class="st0" d="M144.9,178.1h39.4V193h-57.9v-90h18.5V178.1z"/>
	<path class="st0" d="M249,156.2h-35.6V193h-18.5v-90h58.6v15h-40.1v23.2H249V156.2z"/>
	<path class="st0" d="M333.2,118h-27.6v75h-18.5v-75h-27.2v-15h73.3V118z"/>
	<path class="st0" d="M444.9,193h-18.5v-38.6h-36.2V193h-18.5v-90h18.5v36.5h36.2V103h18.5V193z"/>
	<path class="st0" d="M480.8,193h-18.5v-90h18.5V193z"/>
	<path class="st0" d="M516.5,178.1h39.4V193H498v-90h18.5V178.1z"/>
	<path class="st0" d="M620.7,156.2h-35.6V193h-18.5v-90h58.6v15h-40.1v23.2h35.6V156.2z"/>
	<path class="st0" d="M704.9,118h-27.6v75h-18.5v-75h-27.2v-15h73.3V118z"/>
</g>
</svg>
