<svg id="Ebene_1" data-name="Ebene 1" xmlns="http://www.w3.org/2000/svg" viewBox="0 0 1119.48 1122.56"><defs><style>.cls-1{fill:#fff;}.cls-2{fill:#f41c1c;}</style></defs><path class="cls-1" d="M473.61,847.62c-11.23-14.31-22.24-28.34-33.54-42.76l39.05-30.5q258.21-201.72,516.37-403.5c3.66-2.86,5.92-3.2,9.81-.16q142.4,111.53,285,222.77c1,.79,2.08,1.48,3.72,2.64V552.77h-17.42V519h117.25V552.2h-17.82v6.35c0,32.18.06,64.37-.09,96.55a9.8,9.8,0,0,0,4.25,8.68q87.52,68.21,174.91,136.58c5.63,4.4,5.69,4.86,1.28,10.46l-29.05,36.83L1000.57,436.24Z" transform="translate(-440.07 -368.56)"/><path class="cls-2" d="M1410.35,965.5c5.76-9.09,10.52-18.15,16.71-26.1,13.84-17.77,31.63-29.67,54.44-32.74,30.41-4.09,62.11,16.43,71.75,47.19,9.4,30,5.56,59-9,86.6-20.91,39.73-52.56,69-91.08,91-12.31,7-25.55,12.45-38.49,18.34a10.06,10.06,0,0,1-7,.41c-55.89-21.88-101.54-56.14-130.35-110-14.92-27.88-18.36-57.56-8.28-87.7,12.84-38.4,63.23-64.41,107-31.72A102.19,102.19,0,0,1,1410.35,965.5Z" transform="translate(-440.07 -368.56)"/><path class="cls-1" d="M659,1147.32H601.91V928.89h5.38c13.29,0,26.59.14,39.88-.09,3.92-.07,6.14,1.11,8.23,4.56q35.25,58.3,70.86,116.39c1,1.61,2,3.19,3.31,5.31l29.14-49c14.45-24.32,28.94-48.62,43.26-73,1.76-3,3.59-4.29,7.19-4.24,15.21.23,30.42.1,46.26.1v218.34h-56.5V1034.39l-1.48-.29c-1,1.54-2,3.05-2.94,4.61-16.49,27.58-33,55.14-49.37,82.82-2,3.47-4.29,4.83-8.23,4.61a148.56,148.56,0,0,0-16.75,0c-4,.23-6.2-1.18-8.26-4.6-16.14-26.68-32.49-53.23-48.79-79.81a11.62,11.62,0,0,0-4.07-4.31Z" transform="translate(-440.07 -368.56)"/><path class="cls-1" d="M1062.29,1055l56.29-94.74c5.51-9.27,11-18.57,16.59-27.76.89-1.45,2.59-3.4,3.95-3.42,16.13-.24,32.26-.15,49.07-.15V1147.3h-56.64V1034.13l-1.28-.22c-1,1.53-2,3-3,4.61-16.4,27.42-32.87,54.79-49.06,82.33-2.38,4.06-5,5.63-9.59,5.29-7.06-.51-15.38,1.7-20.9-1.34-5.3-2.93-7.79-11-11.41-16.93q-20.38-33.21-40.73-66.46c-1-1.61-2.07-3.15-3.91-6v111.72H934.91V928.89h5.22c13.29,0,26.59.17,39.88-.1,4-.08,6.08,1.32,8.12,4.69q35.08,58.07,70.5,115.93C1059.71,1051.19,1060.91,1052.89,1062.29,1055Z" transform="translate(-440.07 -368.56)"/><path class="cls-1" d="M522.87,1354.47h84.5v-81.58h61.72V1491H607.5v-84.27H523.19v84.37H461.86V1273h61Z" transform="translate(-440.07 -368.56)"/><path class="cls-1" d="M1175.59,1368.66h95.61v47.67h-96v74.77h-61.78V1272.89h171v47.19H1175.59Z" transform="translate(-440.07 -368.56)"/><path class="cls-1" d="M1394.94,1321.86h-66.87v-49H1523.2v48.86H1457v169.32h-62.1Z" transform="translate(-440.07 -368.56)"/><path class="cls-1" d="M1054.1,1442.11v49H888.46V1272.88h61.28v169.23Z" transform="translate(-440.07 -368.56)"/><path class="cls-1" d="M809.43,1272.94V1491.1H747.94V1272.94Z" transform="translate(-440.07 -368.56)"/><path class="cls-1" d="M522.65,1147.35H461.73V929.25h60.92Z" transform="translate(-440.07 -368.56)"/></svg>