<?xml version="1.0" encoding="utf-8"?>
<!-- Generator: Adobe Illustrator 26.0.3, SVG Export Plug-In . SVG Version: 6.00 Build 0)  -->
<svg version="1.1" id="Ebene_1" xmlns="http://www.w3.org/2000/svg" xmlns:xlink="http://www.w3.org/1999/xlink" x="0px" y="0px"
	 viewBox="0 0 500 500" style="enable-background:new 0 0 500 500;" xml:space="preserve">
<style type="text/css">
	.st0{fill:#FFFFFF;}
	.st1{clip-path:url(#SVGID_00000119119931523097193330000017660417380093047693_);}
	.st2{fill:#5173B7;}
	.st3{fill:#F1DD30;}
</style>
<g>
	<g>
		<g>
			<defs>
				<path id="SVGID_1_" d="M25.4,130.9c148,74.2,296.1-96.9,444.1-28.8c0,86.4,0,172.7,0,259.1c-148-68.1-296.1,103.1-444.1,28.8
					C25.4,303.6,25.4,217.3,25.4,130.9z"/>
			</defs>
			<clipPath id="SVGID_00000154403443157923908560000006422479648443835801_">
				<use xlink:href="#SVGID_1_"  style="overflow:visible;"/>
			</clipPath>
		</g>
	</g>
	<g>
		<path class="st0" d="M497.4,95C332.7-16.3,167.9,206.3,3.2,95c0,103.1,0,206.1,0,309.2c164.7,111.3,329.5-111.3,494.2,0
			C497.4,301.1,497.4,198.1,497.4,95z"/>
		<g id="UKRAINE_2_">
			<g>
				<defs>
					<path id="SVGID_00000087398654049757414820000004848186618468094343_" d="M25.4,130.9c148,74.2,296.1-96.9,444.1-28.8
						c0,86.4,0,172.7,0,259.1c-148-68.1-296.1,103.1-444.1,28.8C25.4,303.6,25.4,217.3,25.4,130.9z"/>
				</defs>
				<clipPath id="SVGID_00000084492264058644327520000002640335205283574160_">
					<use xlink:href="#SVGID_00000087398654049757414820000004848186618468094343_"  style="overflow:visible;"/>
				</clipPath>
				<g style="clip-path:url(#SVGID_00000084492264058644327520000002640335205283574160_);">
					<path class="st2" d="M25.4,390c148,74.2,296.1-96.9,444.1-28.8c0-86.4,0-172.7,0-259.1C321.5,34,173.5,205.1,25.4,130.9
						C25.4,217.3,25.4,303.6,25.4,390z"/>
				</g>
				<g style="clip-path:url(#SVGID_00000084492264058644327520000002640335205283574160_);">
					<path class="st3" d="M25.4,390c148,74.2,296.1-96.9,444.1-28.8c0-43.2,0-86.4,0-129.5c-148-68.1-296.1,103.1-444.1,28.8
						C25.4,303.6,25.4,346.8,25.4,390z"/>
				</g>
			</g>
		</g>
	</g>
	<g>
		<g>
			<defs>
				<path id="SVGID_00000096763306283786248220000012674228376416912299_" d="M25.4,130.9c148,74.2,296.1-96.9,444.1-28.8
					c0,86.4,0,172.7,0,259.1c-148-68.1-296.1,103.1-444.1,28.8C25.4,303.6,25.4,217.3,25.4,130.9z"/>
			</defs>
			<clipPath id="SVGID_00000007386797745503547040000005284759190949652669_">
				<use xlink:href="#SVGID_00000096763306283786248220000012674228376416912299_"  style="overflow:visible;"/>
			</clipPath>
		</g>
	</g>
</g>
</svg>
