<?xml version="1.0" encoding="utf-8"?>
<!-- Generator: Adobe Illustrator 26.0.3, SVG Export Plug-In . SVG Version: 6.00 Build 0)  -->
<svg version="1.1" id="Ebene_1" xmlns="http://www.w3.org/2000/svg" xmlns:xlink="http://www.w3.org/1999/xlink" x="0px" y="0px"
	 viewBox="0 0 500 193" style="enable-background:new 0 0 500 193;" xml:space="preserve">
<style type="text/css">
	.st0{fill:#FFD700;}
</style>
<g>
	<path class="st0" d="M76,2L60.5,95.7H48.8L38.3,32.2L27.6,95.7H15.9L0.3,2h11.4l10.7,65.8L33.5,2h10.2l10.8,66.4L65.6,2H76z"/>
	<path class="st0" d="M78.7,48.8c0-27.8,11-48.4,25.9-48.4s25.9,20.5,25.9,48.4c0,28-11,48.4-25.9,48.4
		C89.6,97.3,78.7,76.7,78.7,48.8z M119.4,48.8c0-17.8-6.4-30-14.8-30c-8.5,0-14.8,12.2-14.8,30s6.4,30,14.8,30
		S119.4,66.6,119.4,48.8z"/>
	<path class="st0" d="M182.2,2v93.7h-11V57.3h-21.5v38.4h-11V2h11v36.9h21.5V2H182.2z"/>
	<path class="st0" d="M237,2v93.7h-9l-23.6-56.9v56.9h-10.8V2h9.1l23.6,56.9V2H237z"/>
	<path class="st0" d="M339,2l-15.5,93.7h-11.8l-10.4-63.4l-10.8,63.4h-11.7L263.3,2h11.4l10.7,65.8L296.5,2h10.2l10.8,66.4l11-66.4
		H339z"/>
	<path class="st0" d="M341.6,48.8c0-27.8,11-48.4,25.9-48.4s25.9,20.5,25.9,48.4c0,28-11,48.4-25.9,48.4
		C352.6,97.3,341.6,76.7,341.6,48.8z M382.3,48.8c0-17.8-6.4-30-14.8-30c-8.5,0-14.8,12.2-14.8,30s6.4,30,14.8,30
		C376,78.8,382.3,66.6,382.3,48.8z"/>
	<path class="st0" d="M445.2,2v93.7h-11V57.3h-21.5v38.4h-11V2h11v36.9h21.5V2H445.2z"/>
	<path class="st0" d="M499.9,2v93.7h-9l-23.6-56.9v56.9h-10.8V2h9.1l23.6,56.9V2H499.9z"/>
</g>
<g>
	<path class="st0" d="M34.6,191l-10.3-25.8h-0.6H13V191H0.7V98.5h23c14.2,0,23.1,12.8,23.1,33.6c0,13.9-4,24.1-10.9,29.2L47.8,191
		H34.6z M23.1,115.9H13v32.3h10c7.5,0,11.3-6.1,11.3-16.1C34.4,121.9,30.6,115.9,23.1,115.9z"/>
	<path class="st0" d="M91.7,171.2H67L62.2,191H49.6l23.7-92.5h12.2l23.8,92.5H96.4L91.7,171.2z M87.8,154.9l-8.4-35.4L71,154.9H87.8
		z"/>
	<path class="st0" d="M113.3,150.3V98.5h12.3v51c0,17.6,4.4,24.9,11.9,24.9s11.9-7.3,11.9-24.9v-51h12.2v51.8
		c0,27.2-9,42.3-24.1,42.3C122.2,192.6,113.3,177.5,113.3,150.3z"/>
	<path class="st0" d="M222.1,191l-0.1-55.5l-15.7,45.7h-5.6l-15.6-44.5V191h-11.6V98.5h10.2l19.9,57.5l19.6-57.5h10.1l0.2,92.5
		H222.1z"/>
	<path class="st0" d="M301.7,191l-10.3-25.8h-0.6h-10.7V191h-12.3V98.5h23c14.2,0,23.1,12.8,23.1,33.6c0,13.9-4,24.1-10.9,29.2
		l11.9,29.7H301.7z M290.2,115.9h-10v32.3h10c7.5,0,11.3-6.1,11.3-16.1C301.5,121.9,297.7,115.9,290.2,115.9z"/>
	<path class="st0" d="M358.7,171.2H334l-4.7,19.8h-12.6l23.7-92.5h12.2l23.8,92.5h-12.9L358.7,171.2z M354.9,154.9l-8.4-35.4
		l-8.4,35.4H354.9z"/>
	<path class="st0" d="M380.4,150.3V98.5h12.3v51c0,17.6,4.4,24.9,11.9,24.9s11.9-7.3,11.9-24.9v-51h12.2v51.8
		c0,27.2-9,42.3-24.1,42.3S380.4,177.5,380.4,150.3z"/>
	<path class="st0" d="M489.2,191l-0.1-55.5l-15.7,45.7h-5.6l-15.6-44.5V191h-11.6V98.5h10.2l19.9,57.5l19.6-57.5h10.1l0.2,92.5
		H489.2z"/>
</g>
</svg>
